<svg width="40" height="42" viewBox="0 0 40 42" fill="none" xmlns="http://www.w3.org/2000/svg">
<path d="M19.532 41.9201C16.9543 41.922 14.4028 41.3835 12.0299 40.3367C9.65688 39.29 7.51117 37.7564 5.72095 35.8278C2.05172 31.8826 0.000488281 26.6088 0.000488281 21.1201C0.000488281 15.6314 2.05172 10.3575 5.72095 6.4124C7.51234 4.48533 9.65828 2.95286 12.031 1.90624C14.4037 0.85962 16.9546 0.320251 19.532 0.320251C22.1093 0.320251 24.6602 0.85962 27.0329 1.90624C29.4056 2.95286 31.5516 4.48533 33.343 6.4124C37.0122 10.3575 39.0634 15.6314 39.0634 21.1201C39.0634 26.6088 37.0122 31.8826 33.343 35.8278C31.5528 37.7565 29.4071 39.2901 27.0341 40.3368C24.6611 41.3836 22.1096 41.9221 19.532 41.9201ZM23.278 30.7234V33.8434C23.506 33.8923 23.7381 33.9171 23.971 33.9173C24.6323 33.9336 25.2916 33.8338 25.921 33.6219C26.4469 33.4274 26.9214 33.1067 27.306 32.6859C27.7357 32.2012 28.09 31.6496 28.356 31.051C28.665 30.3844 28.991 29.5857 29.325 28.6788L34.011 15.6507H30.48L27.595 24.3285L24.548 15.6507H20.623L25.794 28.6507C25.6104 29.2388 25.346 29.7961 25.009 30.3054C24.8848 30.4657 24.726 30.5932 24.5454 30.6774C24.3648 30.7616 24.1676 30.8002 23.97 30.79C23.7371 30.7898 23.505 30.765 23.277 30.7162L23.278 30.7234ZM11.09 26.9139C11.2573 27.1932 11.4542 27.452 11.677 27.6856C11.9272 27.9492 12.2104 28.1766 12.519 28.3616C12.8597 28.5653 13.2244 28.7223 13.604 28.8286C14.0257 28.9454 14.4605 29.0031 14.897 29.0002C15.6405 29.0106 16.3784 28.8641 17.066 28.5696C17.7065 28.2868 18.2753 27.8536 18.728 27.3039C19.2176 26.6917 19.5793 25.9801 19.79 25.2146C20.0504 24.2635 20.1747 23.2778 20.159 22.289V21.7971C20.2789 20.0711 19.8054 18.3568 18.823 16.9601C18.3266 16.4027 17.7168 15.9676 17.0381 15.6865C16.3594 15.4055 15.6289 15.2856 14.9 15.3356C14.2008 15.334 13.5121 15.5129 12.8957 15.8561C12.2793 16.1993 11.7544 16.6962 11.368 17.3022V11.4782H7.81295V28.683H11.09V26.915V26.9139ZM14.045 25.8822C13.69 25.8887 13.3377 25.8181 13.0105 25.6748C12.6833 25.5316 12.3885 25.3188 12.145 25.0502C11.596 24.3919 11.3183 23.5352 11.372 22.6655V21.4321C11.3437 21.0256 11.398 20.6174 11.5313 20.2341C11.6647 19.8509 11.8741 19.5011 12.146 19.2075C12.6611 18.7094 13.3428 18.44 14.046 18.4566C14.3845 18.4454 14.7211 18.5136 15.0308 18.6562C15.3405 18.7988 15.6154 19.0121 15.835 19.2803C16.341 20.0103 16.5823 20.903 16.516 21.8002V22.2922C16.5797 23.2417 16.333 24.1858 15.816 24.9712C15.6101 25.2567 15.3425 25.4879 15.0349 25.646C14.7272 25.8041 14.3881 25.8847 14.045 25.8812V25.8822Z" fill="#01BAB3"/>
</svg>
